<svg version="1" xmlns="http://www.w3.org/2000/svg" width="533.333" height="533.333" viewBox="0 0 400.000000 400.000000"><path d="M223 188.5V273h34V104h-34v84.5zM131 146.6c-21.2 4.5-37.1 20.4-43.1 43.1-3 11-3 31.6-.1 42.4 5.8 21.5 19.8 35.9 40.2 41.5 9 2.5 29.1 2.5 37.9.1 20-5.5 35.2-19.8 37.7-35.6l.7-4.1h-31.2l-1.7 3.5c-6.7 14.2-31.6 16.9-43.8 4.9-3.8-3.8-7.3-11.6-8.2-18.1l-.7-5.3 43.4-.2 43.4-.3-.3-11.5c-.3-13.6-2.1-21.8-7-32-11.1-22.8-38.9-34.5-67.2-28.4zm24.4 25.6c8 2.4 16.6 14 16.6 22.5v2.3h-52.3l.7-4.1c1.4-8.4 7.5-16.6 15.1-20 4.7-2.2 13.9-2.5 19.9-.7zM292.3 239.5c-4.4 2.7-9.3 10.7-9.3 15.3 0 16.7 19.3 25.8 31.7 14.9 9-7.9 8.4-22-1.3-29.4-3-2.2-4.9-2.8-10.3-3.1-5.7-.2-7.2.1-10.8 2.3z"/></svg>