<?xml version="1.0" standalone="no"?>
<!DOCTYPE svg PUBLIC "-//W3C//DTD SVG 20010904//EN"
 "http://www.w3.org/TR/2001/REC-SVG-20010904/DTD/svg10.dtd">
<svg version="1.0" xmlns="http://www.w3.org/2000/svg"
 width="16.000000pt" height="16.000000pt" viewBox="0 0 16.000000 16.000000"
 preserveAspectRatio="xMidYMid meet">
<metadata>
Created by potrace 1.11, written by Peter Selinger 2001-2013
</metadata>
<g transform="translate(0.000000,16.000000) scale(0.006154,-0.006154)"
fill="#000000" stroke="none">
<path d="M391 1822 c13 -10 72 -52 132 -92 l107 -74 0 -445 0 -446 80 0 80 -1
0 388 c0 213 2 388 4 388 3 0 51 -32 108 -72 57 -39 127 -88 156 -107 46 -31
52 -39 52 -71 1 -19 1 -144 1 -277 0 -134 3 -244 7 -244 4 -1 40 -2 80 -3 l72
-2 0 223 0 224 30 -18 30 -17 0 -206 0 -205 80 0 80 -1 0 149 0 148 143 -98
c78 -54 175 -120 215 -148 l73 -49 134 -1 c105 -1 132 2 123 11 -13 12 -361
254 -538 374 -52 36 -100 70 -106 76 -9 8 3 22 45 56 31 25 67 56 80 67 14 12
77 65 140 119 63 53 124 106 137 117 12 11 83 72 158 135 l137 115 -117 3
c-133 3 -118 9 -249 -103 -286 -245 -369 -314 -372 -311 -2 2 -4 96 -4 210
l-1 206 -79 0 -79 0 -2 -239 -3 -239 -345 239 -345 238 -134 0 c-131 1 -133 1
-110 -17z"/>
</g>
</svg>
