<?xml version="1.0" standalone="no"?>
<!DOCTYPE svg PUBLIC "-//W3C//DTD SVG 20010904//EN"
 "http://www.w3.org/TR/2001/REC-SVG-20010904/DTD/svg10.dtd">
<svg version="1.0" xmlns="http://www.w3.org/2000/svg"
 width="16.000000pt" height="16.000000pt" viewBox="0 0 16.000000 16.000000"
 preserveAspectRatio="xMidYMid meet">
<metadata>
Created by potrace 1.11, written by Peter Selinger 2001-2013
</metadata>
<g transform="translate(0.000000,16.000000) scale(0.001058,-0.001058)"
fill="#000000" stroke="none">
<path d="M1560 10861 l-44 -6 414 -286 c228 -157 457 -314 508 -349 69 -46
100 -75 120 -109 l27 -46 -4 -2912 -3 -2913 706 0 706 0 0 2450 c0 1348 2
2450 5 2450 3 0 317 -215 698 -479 380 -263 815 -563 966 -667 227 -157 278
-196 294 -228 21 -39 21 -48 18 -1783 l-3 -1743 711 0 711 0 0 1275 c0 701 2
1275 4 1275 3 0 74 -47 159 -105 123 -83 158 -112 173 -142 17 -36 18 -91 15
-1170 l-3 -1133 711 0 711 0 2 666 3 665 365 -252 c1146 -791 1516 -1043 1558
-1062 47 -21 48 -21 1185 -25 627 -2 1173 -1 1214 3 73 7 75 8 57 25 -11 9
-908 630 -1994 1380 -1086 750 -1992 1375 -2013 1391 l-38 27 928 848 c2518
2302 3044 2785 3088 2835 39 45 71 106 61 116 -4 4 -449 8 -989 8 -910 -1
-985 -2 -1018 -18 -38 -19 -60 -38 -1189 -1072 -415 -380 -861 -787 -990 -905
l-235 -213 -3 1101 -2 1102 -705 0 -705 0 0 -1305 c0 -718 -3 -1305 -7 -1305
-5 0 -451 307 -993 682 -2092 1446 -2754 1901 -2789 1916 -32 15 -154 16
-1191 18 -635 1 -1175 -1 -1200 -5z"/>
</g>
</svg>
