<svg xmlns="http://www.w3.org/2000/svg" viewBox="0 0 136.1 29.69"><defs><style>.cls-1,.cls-2,.cls-3,.cls-4,.cls-5{fill:none;stroke-miterlimit:10;stroke-width:0.25px;}.cls-1{stroke:#d83a3a;}.cls-2{stroke:#f2eb08;}.cls-3{stroke:#db6639;}.cls-4{stroke:#8bae71;}.cls-5{stroke:#ebf2ef;}</style></defs><title>Asset 1</title><g id="Layer_2" data-name="Layer 2"><g id="Layer_1-2" data-name="Layer 1"><path class="cls-1" d="M.27,17.43c0-2.16-.07-4-.14-5.51H4.79L5,14.29h.11a6.31,6.31,0,0,1,5.33-2.76c3.53,0,6.17,2.33,6.17,7.41V29.17H11.28V19.61c0-2.22-.78-3.74-2.72-3.74a2.86,2.86,0,0,0-2.71,2,3.72,3.72,0,0,0-.22,1.34v10H.27Z"/><path class="cls-1" d="M38,20.35c0,6.32-4.48,9.21-9.1,9.21-5,0-8.92-3.32-8.92-8.89s3.66-9.14,9.2-9.14A8.39,8.39,0,0,1,38,20.35Zm-12.49.18c0,3,1.24,5.19,3.53,5.19,2.08,0,3.42-2.09,3.42-5.19,0-2.58-1-5.19-3.42-5.19S25.49,18,25.49,20.53Z"/><path class="cls-1" d="M45.53,22.26c.18,2.22,2.36,3.28,4.87,3.28a15.17,15.17,0,0,0,4.76-.71l.71,3.64a17.19,17.19,0,0,1-6.25,1.06c-5.85,0-9.21-3.39-9.21-8.79,0-4.37,2.72-9.21,8.72-9.21,5.57,0,7.69,4.34,7.69,8.61a12.75,12.75,0,0,1-.18,2.12Zm6.31-3.67c0-1.31-.56-3.49-3-3.49-2.26,0-3.17,2-3.32,3.49Z"/><path class="cls-1" d="M60,4.12h5.36V29.17H60Z"/><path class="cls-1" d="M75.09,19.19h.07c.39-.71.81-1.41,1.24-2.08l3.49-5.19h6.45l-6.17,7,7.06,10.26h-6.6l-4.16-7.09-1.38,1.7v5.39H69.73v-25h5.36Z"/><path class="cls-1" d="M94.74,7.12a2.69,2.69,0,0,1-2.89,2.69,2.62,2.62,0,0,1-2.79-2.69,2.61,2.61,0,0,1,2.82-2.71A2.69,2.69,0,0,1,94.74,7.12ZM89.2,29.17V11.92h5.36V29.17Z"/><path class="cls-1" d="M98.86,17.6c0-2.54-.07-4.2-.14-5.68h4.63l.17,3.18h.14a5.08,5.08,0,0,1,4.66-3.57,5.61,5.61,0,0,1,1.13.07v5a7.8,7.8,0,0,0-1.45-.14,3.46,3.46,0,0,0-3.67,2.71,6.47,6.47,0,0,0-.1,1.2v8.75H98.86Z"/><path class="cls-1" d="M116.11,22.26c.18,2.22,2.37,3.28,4.87,3.28a15.19,15.19,0,0,0,4.77-.71l.7,3.64a17.1,17.1,0,0,1-6.24,1.06c-5.86,0-9.21-3.39-9.21-8.79,0-4.37,2.72-9.21,8.71-9.21,5.58,0,7.69,4.34,7.69,8.61a13,13,0,0,1-.17,2.12Zm6.32-3.67c0-1.31-.57-3.49-3-3.49-2.26,0-3.18,2-3.32,3.49Z"/><path class="cls-1" d="M129.66,26.32A3.11,3.11,0,0,1,132.84,23,3.07,3.07,0,0,1,136,26.32a3.16,3.16,0,1,1-6.32,0Z"/><path class="cls-2" d="M.27,14.43c0-2.16-.07-4-.14-5.51H4.79L5,11.29h.11a6.31,6.31,0,0,1,5.33-2.76c3.53,0,6.17,2.33,6.17,7.41V26.17H11.28V16.61c0-2.22-.78-3.74-2.72-3.74a2.86,2.86,0,0,0-2.71,2,3.72,3.72,0,0,0-.22,1.34v10H.27Z"/><path class="cls-2" d="M38,17.35c0,6.32-4.48,9.21-9.1,9.21-5,0-8.92-3.32-8.92-8.89s3.66-9.14,9.2-9.14A8.39,8.39,0,0,1,38,17.35Zm-12.49.18c0,3,1.24,5.19,3.53,5.19,2.08,0,3.42-2.09,3.42-5.19,0-2.58-1-5.19-3.42-5.19S25.49,15,25.49,17.53Z"/><path class="cls-2" d="M45.53,19.26c.18,2.22,2.36,3.28,4.87,3.28a15.17,15.17,0,0,0,4.76-.71l.71,3.64a17.19,17.19,0,0,1-6.25,1.06c-5.85,0-9.21-3.39-9.21-8.79,0-4.37,2.72-9.21,8.72-9.21,5.57,0,7.69,4.34,7.69,8.61a12.75,12.75,0,0,1-.18,2.12Zm6.31-3.67c0-1.31-.56-3.49-3-3.49-2.26,0-3.17,2-3.32,3.49Z"/><path class="cls-2" d="M60,1.12h5.36V26.17H60Z"/><path class="cls-2" d="M75.09,16.19h.07c.39-.71.81-1.41,1.24-2.08l3.49-5.19h6.45l-6.17,7,7.06,10.26h-6.6l-4.16-7.09-1.38,1.7v5.39H69.73v-25h5.36Z"/><path class="cls-2" d="M94.74,4.12a2.69,2.69,0,0,1-2.89,2.69,2.62,2.62,0,0,1-2.79-2.69,2.61,2.61,0,0,1,2.82-2.71A2.69,2.69,0,0,1,94.74,4.12ZM89.2,26.17V8.92h5.36V26.17Z"/><path class="cls-2" d="M98.86,14.6c0-2.54-.07-4.2-.14-5.68h4.63l.17,3.18h.14a5.08,5.08,0,0,1,4.66-3.57,5.61,5.61,0,0,1,1.13.07v5.05a7.8,7.8,0,0,0-1.45-.14,3.46,3.46,0,0,0-3.67,2.71,6.47,6.47,0,0,0-.1,1.2v8.75H98.86Z"/><path class="cls-2" d="M116.11,19.26c.18,2.22,2.37,3.28,4.87,3.28a15.19,15.19,0,0,0,4.77-.71l.7,3.64a17.1,17.1,0,0,1-6.24,1.06c-5.86,0-9.21-3.39-9.21-8.79,0-4.37,2.72-9.21,8.71-9.21,5.58,0,7.69,4.34,7.69,8.61a13,13,0,0,1-.17,2.12Zm6.32-3.67c0-1.31-.57-3.49-3-3.49-2.26,0-3.18,2-3.32,3.49Z"/><path class="cls-2" d="M129.66,23.32A3.11,3.11,0,0,1,132.84,20,3.07,3.07,0,0,1,136,23.32a3.16,3.16,0,1,1-6.32,0Z"/><path class="cls-3" d="M.27,16.43c0-2.16-.07-4-.14-5.51H4.79L5,13.29h.11a6.31,6.31,0,0,1,5.33-2.76c3.53,0,6.17,2.33,6.17,7.41V28.17H11.28V18.61c0-2.22-.78-3.74-2.72-3.74a2.86,2.86,0,0,0-2.71,2,3.72,3.72,0,0,0-.22,1.34v10H.27Z"/><path class="cls-3" d="M38,19.35c0,6.32-4.48,9.21-9.1,9.21-5,0-8.92-3.32-8.92-8.89s3.66-9.14,9.2-9.14A8.39,8.39,0,0,1,38,19.35Zm-12.49.18c0,3,1.24,5.19,3.53,5.19,2.08,0,3.42-2.09,3.42-5.19,0-2.58-1-5.19-3.42-5.19S25.49,17,25.49,19.53Z"/><path class="cls-3" d="M45.53,21.26c.18,2.22,2.36,3.28,4.87,3.28a15.17,15.17,0,0,0,4.76-.71l.71,3.64a17.19,17.19,0,0,1-6.25,1.06c-5.85,0-9.21-3.39-9.21-8.79,0-4.37,2.72-9.21,8.72-9.21,5.57,0,7.69,4.34,7.69,8.61a12.75,12.75,0,0,1-.18,2.12Zm6.31-3.67c0-1.31-.56-3.49-3-3.49-2.26,0-3.17,2-3.32,3.49Z"/><path class="cls-3" d="M60,3.12h5.36V28.17H60Z"/><path class="cls-3" d="M75.09,18.19h.07c.39-.71.81-1.41,1.24-2.08l3.49-5.19h6.45l-6.17,7,7.06,10.26h-6.6l-4.16-7.09-1.38,1.7v5.39H69.73v-25h5.36Z"/><path class="cls-3" d="M94.74,6.12a2.69,2.69,0,0,1-2.89,2.69,2.62,2.62,0,0,1-2.79-2.69,2.61,2.61,0,0,1,2.82-2.71A2.69,2.69,0,0,1,94.74,6.12ZM89.2,28.17V10.92h5.36V28.17Z"/><path class="cls-3" d="M98.86,16.6c0-2.54-.07-4.2-.14-5.68h4.63l.17,3.18h.14a5.08,5.08,0,0,1,4.66-3.57,5.61,5.61,0,0,1,1.13.07v5.05a7.8,7.8,0,0,0-1.45-.14,3.46,3.46,0,0,0-3.67,2.71,6.47,6.47,0,0,0-.1,1.2v8.75H98.86Z"/><path class="cls-3" d="M116.11,21.26c.18,2.22,2.37,3.28,4.87,3.28a15.19,15.19,0,0,0,4.77-.71l.7,3.64a17.1,17.1,0,0,1-6.24,1.06c-5.86,0-9.21-3.39-9.21-8.79,0-4.37,2.72-9.21,8.71-9.21,5.58,0,7.69,4.34,7.69,8.61a13,13,0,0,1-.17,2.12Zm6.32-3.67c0-1.31-.57-3.49-3-3.49-2.26,0-3.18,2-3.32,3.49Z"/><path class="cls-3" d="M129.66,25.32A3.11,3.11,0,0,1,132.84,22,3.07,3.07,0,0,1,136,25.32a3.16,3.16,0,1,1-6.32,0Z"/><path class="cls-4" d="M.27,15.43c0-2.16-.07-4-.14-5.51H4.79L5,12.29h.11a6.31,6.31,0,0,1,5.33-2.76c3.53,0,6.17,2.33,6.17,7.41V27.17H11.28V17.61c0-2.22-.78-3.74-2.72-3.74a2.86,2.86,0,0,0-2.71,2,3.72,3.72,0,0,0-.22,1.34v10H.27Z"/><path class="cls-4" d="M38,18.35c0,6.32-4.48,9.21-9.1,9.21-5,0-8.92-3.32-8.92-8.89s3.66-9.14,9.2-9.14A8.39,8.39,0,0,1,38,18.35Zm-12.49.18c0,3,1.24,5.19,3.53,5.19,2.08,0,3.42-2.09,3.42-5.19,0-2.58-1-5.19-3.42-5.19S25.49,16,25.49,18.53Z"/><path class="cls-4" d="M45.53,20.26c.18,2.22,2.36,3.28,4.87,3.28a15.17,15.17,0,0,0,4.76-.71l.71,3.64a17.19,17.19,0,0,1-6.25,1.06c-5.85,0-9.21-3.39-9.21-8.79,0-4.37,2.72-9.21,8.72-9.21,5.57,0,7.69,4.34,7.69,8.61a12.75,12.75,0,0,1-.18,2.12Zm6.31-3.67c0-1.31-.56-3.49-3-3.49-2.26,0-3.17,2-3.32,3.49Z"/><path class="cls-4" d="M60,2.12h5.36V27.17H60Z"/><path class="cls-4" d="M75.09,17.19h.07c.39-.71.81-1.41,1.24-2.08l3.49-5.19h6.45l-6.17,7,7.06,10.26h-6.6l-4.16-7.09-1.38,1.7v5.39H69.73v-25h5.36Z"/><path class="cls-4" d="M94.74,5.12a2.69,2.69,0,0,1-2.89,2.69,2.62,2.62,0,0,1-2.79-2.69,2.61,2.61,0,0,1,2.82-2.71A2.69,2.69,0,0,1,94.74,5.12ZM89.2,27.17V9.92h5.36V27.17Z"/><path class="cls-4" d="M98.86,15.6c0-2.54-.07-4.2-.14-5.68h4.63l.17,3.18h.14a5.08,5.08,0,0,1,4.66-3.57,5.61,5.61,0,0,1,1.13.07v5.05a7.8,7.8,0,0,0-1.45-.14,3.46,3.46,0,0,0-3.67,2.71,6.47,6.47,0,0,0-.1,1.2v8.75H98.86Z"/><path class="cls-4" d="M116.11,20.26c.18,2.22,2.37,3.28,4.87,3.28a15.19,15.19,0,0,0,4.77-.71l.7,3.64a17.1,17.1,0,0,1-6.24,1.06c-5.86,0-9.21-3.39-9.21-8.79,0-4.37,2.72-9.21,8.71-9.21,5.58,0,7.69,4.34,7.69,8.61a13,13,0,0,1-.17,2.12Zm6.32-3.67c0-1.31-.57-3.49-3-3.49-2.26,0-3.18,2-3.32,3.49Z"/><path class="cls-4" d="M129.66,24.32A3.11,3.11,0,0,1,132.84,21,3.07,3.07,0,0,1,136,24.32a3.16,3.16,0,1,1-6.32,0Z"/><path class="cls-5" d="M.27,13.43c0-2.16-.07-4-.14-5.51H4.79L5,10.29h.11a6.31,6.31,0,0,1,5.33-2.76c3.53,0,6.17,2.33,6.17,7.41V25.17H11.28V15.61c0-2.22-.78-3.74-2.72-3.74a2.86,2.86,0,0,0-2.71,2,3.72,3.72,0,0,0-.22,1.34v10H.27Z"/><path class="cls-5" d="M38,16.35c0,6.32-4.48,9.21-9.1,9.21-5,0-8.92-3.32-8.92-8.89s3.66-9.14,9.2-9.14A8.39,8.39,0,0,1,38,16.35Zm-12.49.18c0,3,1.24,5.19,3.53,5.19,2.08,0,3.42-2.09,3.42-5.19,0-2.58-1-5.19-3.42-5.19S25.49,14,25.49,16.53Z"/><path class="cls-5" d="M45.53,18.26c.18,2.22,2.36,3.28,4.87,3.28a15.17,15.17,0,0,0,4.76-.71l.71,3.64a17.19,17.19,0,0,1-6.25,1.06c-5.85,0-9.21-3.39-9.21-8.79,0-4.37,2.72-9.21,8.72-9.21,5.57,0,7.69,4.34,7.69,8.61a12.75,12.75,0,0,1-.18,2.12Zm6.31-3.67c0-1.31-.56-3.49-3-3.49-2.26,0-3.17,2-3.32,3.49Z"/><path class="cls-5" d="M60,.12h5.36V25.17H60Z"/><path class="cls-5" d="M75.09,15.19h.07c.39-.71.81-1.41,1.24-2.08l3.49-5.19h6.45l-6.17,7,7.06,10.26h-6.6l-4.16-7.09-1.38,1.7v5.39H69.73V.12h5.36Z"/><path class="cls-5" d="M94.74,3.12a2.69,2.69,0,0,1-2.89,2.69,2.62,2.62,0,0,1-2.79-2.69A2.61,2.61,0,0,1,91.88.41,2.69,2.69,0,0,1,94.74,3.12ZM89.2,25.17V7.92h5.36V25.17Z"/><path class="cls-5" d="M98.86,13.6c0-2.54-.07-4.2-.14-5.68h4.63l.17,3.18h.14a5.08,5.08,0,0,1,4.66-3.57,5.61,5.61,0,0,1,1.13.07v5.05a7.8,7.8,0,0,0-1.45-.14,3.46,3.46,0,0,0-3.67,2.71,6.47,6.47,0,0,0-.1,1.2v8.75H98.86Z"/><path class="cls-5" d="M116.11,18.26c.18,2.22,2.37,3.28,4.87,3.28a15.19,15.19,0,0,0,4.77-.71l.7,3.64a17.1,17.1,0,0,1-6.24,1.06c-5.86,0-9.21-3.39-9.21-8.79,0-4.37,2.72-9.21,8.71-9.21,5.58,0,7.69,4.34,7.69,8.61a13,13,0,0,1-.17,2.12Zm6.32-3.67c0-1.31-.57-3.49-3-3.49-2.26,0-3.18,2-3.32,3.49Z"/><path class="cls-5" d="M129.66,22.32A3.11,3.11,0,0,1,132.84,19,3.07,3.07,0,0,1,136,22.32a3.16,3.16,0,1,1-6.32,0Z"/></g></g></svg>