<svg xmlns="http://www.w3.org/2000/svg" viewBox="0 0 36.36 70"><defs><style>.cls-1{fill:#fff;}</style></defs><title>fb</title><g id="Layer_2" data-name="Layer 2"><g id="Layer_1-2" data-name="Layer 1"><path class="cls-1" d="M36.15.45c-.49,0-1-.11-1.46-.14C33.61.23,32.52.14,31.44.1,30.11,0,28.79,0,27.47,0a28.1,28.1,0,0,0-2.83.09A14.88,14.88,0,0,0,14.7,4.71a14.42,14.42,0,0,0-3.26,6.06,18.07,18.07,0,0,0-.65,3.9c0,.82-.07,1.63-.08,2.45,0,2.73,0,5.45,0,8.18v.31H0V38.08H10.4c.32,0,.32,0,.32.31q0,15.63,0,31.26c0,.31,0,.31-.32.31h-.06v0H23.76v0c-.14,0-.14-.06-.14-.28q0-15.65,0-31.3c0-.29,0-.29.3-.29H34a.68.68,0,0,0,.23,0c.06,0,.15-.09.15-.15.17-1.24.32-2.48.48-3.72s.3-2.31.45-3.46.27-2.1.4-3.15c.08-.6.16-1.2.24-1.79,0-.05,0-.11,0-.2h-12c-.3,0-.3,0-.3-.3,0-2.81,0-5.62,0-8.43A7.08,7.08,0,0,1,24,14.74,4.06,4.06,0,0,1,27,12a11,11,0,0,1,3-.34h6.41c0-.08,0-.16,0-.23q0-5.35,0-10.7C36.36.55,36.34.46,36.15.45Z"/></g></g></svg>