<svg xmlns="http://www.w3.org/2000/svg" viewBox="0 0 36.31 75"><defs><style>.cls-1{fill:#222;}</style></defs><title>fb_1</title><g id="Layer_2" data-name="Layer 2"><g id="Layer_1-2" data-name="Layer 1"><path class="cls-1" d="M36.31,24.09c-.34,4.26-.5,8-1,11.61-.1.71-1.6,1.64-2.53,1.72-2.6.23-5.24.08-8.39.08,0,1.38,0,2.53,0,3.69,0,10.2-.07,20.39,0,30.59,0,2.47-.78,3.29-3.2,3.21-4.14-.14-8.29,0-12.85,0V37.63H0c0-4.15-.1-8,.1-11.74,0-.61,1.34-1.54,2.15-1.65a45.71,45.71,0,0,1,5.93-.08c0-3,0-5.68,0-8.38,0-10.15,3.36-14.3,13.37-15.5,4.71-.57,9.54-.1,14.65-.1,0,4.06.1,7.88-.09,11.68a2.78,2.78,0,0,1-1.95,1.82,46.55,46.55,0,0,1-6.57.11c-2.19-.05-3.27.92-3.25,3.12s0,4.56,0,7.18Z"/></g></g></svg>