<svg xmlns="http://www.w3.org/2000/svg" viewBox="0 0 76.81 75"><defs><style>.cls-1{fill:#222;}</style></defs><title>gh</title><g id="Layer_2" data-name="Layer 2"><g id="Layer_1-2" data-name="Layer 1"><path class="cls-1" d="M45.6,55.49c1.6-.32,3.22-.59,4.81-1a17.15,17.15,0,0,0,6.87-3.32,14.74,14.74,0,0,0,4.85-7.84,24.87,24.87,0,0,0,.74-8.42,14.34,14.34,0,0,0-3.46-8.34L59,26.11a14.6,14.6,0,0,0-.42-10.2,7.44,7.44,0,0,0-3.14.26,24.32,24.32,0,0,0-6.69,3.19l-.74.49a36.92,36.92,0,0,0-19.22,0c-3.26-2-6.46-4.1-10.59-4A14.3,14.3,0,0,0,17.75,26c-.64.92-1.32,1.8-1.89,2.75a15.58,15.58,0,0,0-2,9.14,25.37,25.37,0,0,0,1,6.25A14.78,14.78,0,0,0,25,54.13a32.94,32.94,0,0,0,6.34,1.33,8.77,8.77,0,0,0-2.41,5.12c-2.88,1.16-5.71,1.57-8.47-.25A8.16,8.16,0,0,1,18,57.67,9.17,9.17,0,0,0,14.5,54.2a5.45,5.45,0,0,0-3.39-.73,1.16,1.16,0,0,0-1,.68,2.87,2.87,0,0,0,1.47,1.59,8.86,8.86,0,0,1,2.94,3,15.59,15.59,0,0,1,1.22,2.32,8.09,8.09,0,0,0,6.12,5A15.55,15.55,0,0,0,28.38,66l.35,0c0,.19,0,.35,0,.52q0,3.09.08,6.18c0,.15,0,.3,0,.45a1.91,1.91,0,0,1-2.66,1.74,32.78,32.78,0,0,1-6.95-3.11,38.17,38.17,0,0,1-18-23.31A30.8,30.8,0,0,1,.05,40.68a53.53,53.53,0,0,1,0-5.46A37.19,37.19,0,0,1,4.87,19.65,38.19,38.19,0,0,1,27.72,1.51,35.85,35.85,0,0,1,34,.27,38.2,38.2,0,0,1,61.39,7.66a37.93,37.93,0,0,1,14,20.45,31.33,31.33,0,0,1,1.25,7.05,52.72,52.72,0,0,1,.1,5.66,37.27,37.27,0,0,1-3.51,13.84A38.16,38.16,0,0,1,55,73.08a42.49,42.49,0,0,1-4.14,1.7,3.14,3.14,0,0,1-1.56.12A1.65,1.65,0,0,1,48,73.14c0-1.16,0-2.32,0-3.48,0-2.6,0-5.2,0-7.79a9.72,9.72,0,0,0-1.18-4.68A19.35,19.35,0,0,0,45.6,55.49Z"/><path class="cls-1" d="M27,62.61c0-.53.37-.68.76-.74s.73,0,.84.47C28.16,63.1,27.64,63.19,27,62.61Z"/><path class="cls-1" d="M25.67,62.77a.89.89,0,0,1-1.65,0,.82.82,0,0,1,.9-.54A.74.74,0,0,1,25.67,62.77Z"/><path class="cls-1" d="M18.58,60.1c.79,0,1.12.28,1.12,1.06-.42.33-.64.32-1,0S18.28,60.52,18.58,60.1Z"/><path class="cls-1" d="M22.54,62.44c-.54.68-1.23.54-1.6-.29C21.39,61.48,22.1,61.6,22.54,62.44Z"/><path class="cls-1" d="M16.82,57.88c.78.12,1,.42.78,1.21a.62.62,0,0,1-.86-.29C16.54,58.51,16.43,58.19,16.82,57.88Z"/><path class="cls-1" d="M16.08,56.89c-.71.17-1-.11-.92-.86C15.86,55.86,16.14,56.12,16.08,56.89Z"/><path class="cls-1" d="M13.48,54.83l.37-.35.71.5C14.1,55.53,13.85,55.47,13.48,54.83Z"/></g></g></svg>