<svg xmlns="http://www.w3.org/2000/svg" viewBox="0 0 71.95 70"><defs><style>.cls-1{fill:#fff;}</style></defs><title>git</title><g id="Layer_2" data-name="Layer 2"><g id="Layer_1-2" data-name="Layer 1"><path class="cls-1" d="M42.82,51.92c2.11-.52,4-.89,5.87-1.47,6.56-2.08,9.44-7,10.12-13.49.44-4.28-.12-8.33-2.9-11.85a3.31,3.31,0,0,1-.29-1.75c-.11-2.38-.13-4.77-.29-7.15a1.39,1.39,0,0,0-2.07-1.32c-2.36.9-4.65,2-7,2.86a5.2,5.2,0,0,1-2.68.43,37.3,37.3,0,0,0-15,0,6.11,6.11,0,0,1-3-.56c-2.31-.84-4.56-1.87-6.87-2.71-1-.36-1.87,0-2,1.2-.17,2.31-.23,4.63-.36,6.95a4.63,4.63,0,0,1-.31,2.14C8.66,36.34,14.57,49.7,27.79,51.56l1.15.17c-.58,1.48-1.08,2.93-1.73,4.3a2.37,2.37,0,0,1-1.29,1c-3.55,1.27-6.62.15-8.92-2.94a13.67,13.67,0,0,0-3.56-3.49c-1-.62-2.45-.47-3.88-.69.13.71.1.9.18,1C12.63,52.93,14.16,56,16,58.92S21.14,62.23,24.4,62c.83-.06,1.65-.18,2.69-.3,0,2.32.08,4.47,0,6.6C27,69.85,25.83,70.36,24,69.71a32.68,32.68,0,0,1-12.44-7.57C1,51.72-2.6,39.2,1.9,25.07S16.56,2.6,31.2.39c19.7-3,38.15,11.45,40.5,31.23A35.91,35.91,0,0,1,49.24,69.27c-3.57,1.42-4.34.9-4.29-2.85,0-2.48,0-5,0-7.44A10.23,10.23,0,0,0,42.82,51.92Z"/></g></g></svg>