<svg xmlns="http://www.w3.org/2000/svg" viewBox="0 0 74.77 75"><defs><style>.cls-1{fill:#222;}</style></defs><title>ig</title><g id="Layer_2" data-name="Layer 2"><g id="Layer_1-2" data-name="Layer 1"><path class="cls-1" d="M37.27,75c-5.45-.13-10.9-.19-16.34-.42A22.07,22.07,0,0,1,8.71,70.7,19.36,19.36,0,0,1,.56,56.55,109.52,109.52,0,0,1,0,44.63q0-11.7.24-23.4a22.18,22.18,0,0,1,3.53-12A19.2,19.2,0,0,1,18,.59,93.48,93.48,0,0,1,29.16,0Q41.34,0,53.52.23a22,22,0,0,1,12.67,4,19.64,19.64,0,0,1,8,13.89,57.89,57.89,0,0,1,.5,7.35q.09,12.1,0,24.21a37.46,37.46,0,0,1-1,9.7C71.44,67.6,66,72.5,57.66,74a66.11,66.11,0,0,1-9.65.73c-3.58.12-7.16,0-10.74,0Zm.23-6.68v-.13c3,0,6,.08,9.06,0a81.51,81.51,0,0,0,10.06-.68,12.28,12.28,0,0,0,10.68-9.84A23.89,23.89,0,0,0,68,52.34c.12-8.47.19-16.94.15-25.41a53.65,53.65,0,0,0-.63-8.7c-1-5.9-4.52-9.61-10.42-10.88A26,26,0,0,0,52,6.77Q39.87,6.6,27.73,6.61a75.51,75.51,0,0,0-8.56.47c-6.55.76-10.81,4.75-11.93,11.24a48.66,48.66,0,0,0-.6,7.74c-.08,7.4-.07,14.81,0,22.21a64.12,64.12,0,0,0,.47,7.43c.55,4.39,2.53,8,6.5,10.22a15.68,15.68,0,0,0,7.22,1.93C26.38,68.07,31.94,68.17,37.49,68.32Z"/><path class="cls-1" d="M37.33,56.59a19.2,19.2,0,1,1,19.26-19A19.24,19.24,0,0,1,37.33,56.59ZM50,37.4A12.56,12.56,0,1,0,37.34,49.95,12.51,12.51,0,0,0,50,37.4Z"/><path class="cls-1" d="M57.36,21.83a4.42,4.42,0,1,1,4.43-4.4A4.4,4.4,0,0,1,57.36,21.83Z"/></g></g></svg>