<svg xmlns="http://www.w3.org/2000/svg" viewBox="0 0 69.95 70"><defs><style>.cls-1{fill:#efeded;}</style></defs><title>insta</title><g id="Layer_2" data-name="Layer 2"><g id="Layer_1-2" data-name="Layer 1"><path class="cls-1" d="M35.26,0c5.07,0,10.13,0,15.2,0A19.34,19.34,0,0,1,69.91,19.51q.09,15.58,0,31.16a19.34,19.34,0,0,1-19,19.21q-16,.21-31.92.07A19.2,19.2,0,0,1,.11,51.22Q-.14,35,.17,18.79A19.25,19.25,0,0,1,19.3,0C24.62,0,29.94,0,35.26,0ZM35,4.9c-5.32,0-10.64-.08-16,0A14.24,14.24,0,0,0,5,19Q4.83,35,5,50.92A14.24,14.24,0,0,0,19.08,65q15.83.2,31.66.06A14.24,14.24,0,0,0,65,50.68q.08-15.7,0-31.41A14.32,14.32,0,0,0,50.44,4.9Z"/><path class="cls-1" d="M53.32,37A18.1,18.1,0,1,1,35.2,18.82,18,18,0,0,1,53.32,37ZM34.85,50.39A13.34,13.34,0,1,0,21.77,36.8,13.29,13.29,0,0,0,34.85,50.39Z"/><path class="cls-1" d="M57.35,15.79a3,3,0,0,1-3.27,3,2.83,2.83,0,0,1-2.9-3.11,3.09,3.09,0,0,1,6.17.09Z"/></g></g></svg>