<svg xmlns="http://www.w3.org/2000/svg" viewBox="0 0 75.18 75"><defs><style>.cls-1{fill:#222;}</style></defs><title>li</title><g id="Layer_2" data-name="Layer 2"><g id="Layer_1-2" data-name="Layer 1"><path class="cls-1" d="M75.16,74.95c-5.17,0-10.08,0-15-.05-.38,0-.89-.66-1.09-1.13A4.18,4.18,0,0,1,59,72.22c0-8,0-16-.13-24a19.81,19.81,0,0,0-1.33-6.2c-.87-2.38-2.87-3.49-5.42-3.62C43.9,38,41.62,42.87,41.49,49.37c-.15,7.76,0,15.52,0,23.28,0,2.3,0,2.3-2.38,2.3H25.72V25.49h15v7.79c2.13-3.36,4.48-5.81,7.7-7.15A22,22,0,0,1,67,26.62c4.62,2.22,6.56,6.52,7.4,11.31a48,48,0,0,1,.71,7.75c.08,9.09,0,18.18,0,27.27C75.17,73.53,75.16,74.1,75.16,74.95Z"/><path class="cls-1" d="M17.81,25.47v2c0,15.1,0,30.2,0,45.29,0,1.76-.45,2.27-2.21,2.21C11.77,74.86,7.89,75,4,75H2V25.47Z"/><path class="cls-1" d="M19.56,9.85a9.72,9.72,0,0,1-9.75,9.82A9.91,9.91,0,0,1,0,9.81,9.87,9.87,0,0,1,9.86,0C16,0,20.06,5.54,19.56,9.85Z"/></g></g></svg>