<svg xmlns="http://www.w3.org/2000/svg" viewBox="0 0 70.01 70"><defs><style>.cls-1{fill:#fff;}</style></defs><title>link</title><g id="Layer_2" data-name="Layer 2"><g id="Layer_1-2" data-name="Layer 1"><path class="cls-1" d="M37.8,30.65c5.46-8.12,13-9.06,21.31-7.13,6.18,1.44,9.08,6.09,10.07,12A49.59,49.59,0,0,1,69.94,43c.1,8.11,0,16.21.07,24.32,0,1.93-.59,2.71-2.59,2.64-3.3-.12-6.6-.13-9.9,0-2.09.09-2.9-.49-2.84-2.75.15-6.45.08-12.91,0-19.37a46.4,46.4,0,0,0-.43-6C53.62,37.09,50,35,44.66,36.15c-3.68.81-5.92,3.89-6,8.59-.09,7.39,0,14.78-.06,22.17,0,3,0,3-2.93,3-3.37,0-6.74,0-10.11,0-1.58,0-2.15-.64-2.15-2.18q0-21.09,0-42.18c0-1.52.52-2.24,2.12-2.21q5.16.09,10.33,0c1.47,0,2.07.51,2,2S37.8,28.57,37.8,30.65Z"/><path class="cls-1" d="M16.66,46.77c0,6.88-.06,13.75,0,20.63,0,2-.63,2.65-2.59,2.59-3.43-.11-6.88-.08-10.31,0-1.6,0-2.34-.49-2.34-2.21q.06-21.06,0-42.12c0-1.68.65-2.28,2.29-2.25,3.58.07,7.16.08,10.74,0,1.73,0,2.2.7,2.18,2.32C16.62,32.73,16.66,39.75,16.66,46.77Z"/><path class="cls-1" d="M0,9.13C-.55,4,5-.18,9.06,0a9.44,9.44,0,0,1,9.26,9.3A9.43,9.43,0,0,1,9.1,18.43C4.65,18.56-.51,14.41,0,9.13Z"/></g></g></svg>