<svg xmlns="http://www.w3.org/2000/svg" viewBox="0 0 79.51 75"><defs><style>.cls-1{fill:#222;}</style></defs><title>sc</title><g id="Layer_2" data-name="Layer 2"><g id="Layer_1-2" data-name="Layer 1"><path class="cls-1" d="M77.78,55.89c2.06.45,2.61,2.28,1.2,3.87a5.2,5.2,0,0,1-1.89,1.39,21.76,21.76,0,0,1-4.85,1.57c-2.26.33-3.76,1-3.93,3.62-.1,1.53-1.29,2.21-2.85,2s-3.4-.41-5.11-.54A11,11,0,0,0,52.75,70c-1.16.87-2.35,1.71-3.59,2.46q-9,5.45-18.13.11a8.9,8.9,0,0,1-1.47-1c-4.09-3.59-8.75-4.49-14-3.33-2.77.61-3.48,0-4.06-2.84C11.18,64,10.64,63.23,9,63a27.88,27.88,0,0,1-5.49-1.57A6.49,6.49,0,0,1,1.22,60c-1.66-1.65-1.12-3.59,1.15-4.1,7.31-1.66,11.84-6.51,15-13,1-2.14.6-3.23-1.59-4.2-1.62-.73-3.36-1.21-4.92-2-2.31-1.19-3.08-2.92-2.28-4.58a4.56,4.56,0,0,1,5.43-2c1.34.43,2.72.72,4.12,1.08,0-4.08-.06-7.63,0-11.17.15-7.35,3.62-12.85,9.78-16.6,9-5.46,25.36-4.6,32,8.11,2,3.79,2.09,7.83,2.07,11.93,0,2.42,0,4.84,0,7.65a35.4,35.4,0,0,1,3.46-.88,10.34,10.34,0,0,1,3.44-.14A3.31,3.31,0,0,1,71.74,33a3.42,3.42,0,0,1-2.11,3.49,40.24,40.24,0,0,1-4.55,1.89c-3.09,1.2-3.61,2.31-2.1,5.2C66.19,49.71,70.68,54.35,77.78,55.89Zm-.14,2.92L77.58,58c-7.83-1.74-13-6.71-16.49-13.62-2-3.95-1-6.24,3.1-7.86,1.47-.58,3-1.11,4.36-1.82.5-.26,1.19-1.16,1.06-1.44A2.62,2.62,0,0,0,68,32a5.29,5.29,0,0,0-2.08.25,23.27,23.27,0,0,1-4,.74c-1.52,0-2.55-.66-2.38-2.58.27-3.09.33-6.19.39-9.28A17.94,17.94,0,0,0,44.61,2.8a30.54,30.54,0,0,0-8.46-.12c-8.9,1.15-16.14,8.52-16,17.69,0,3.23.23,6.46.34,9.68.07,2.28-.52,3-2.79,3-1.42,0-2.81-.7-4.23-.77a10.9,10.9,0,0,0-3,.68A8.81,8.81,0,0,0,12.06,35a12.61,12.61,0,0,0,2.71,1.16,25.64,25.64,0,0,1,2.72,1.16c2.3,1.29,3.09,3.25,2.09,5.66a29.56,29.56,0,0,1-2.73,5A22.71,22.71,0,0,1,2.06,58.06a10.13,10.13,0,0,0,2.05,1.38,39.53,39.53,0,0,0,6.07,1.65,3.25,3.25,0,0,1,3.11,3c.14.81.41,1.59.62,2.39,1-.14,1.81-.2,2.59-.34,4.7-.89,9-.23,12.86,2.84a31.14,31.14,0,0,0,2.77,1.91,14.75,14.75,0,0,0,7.46,2.27c4.23.19,7.71-1.49,10.87-4a15.5,15.5,0,0,1,12.24-3.2c1.15.15,2.3.32,3.47.48a7.91,7.91,0,0,0,.34-1.18c.23-2.78,1.69-4,4.53-4.34C73.28,60.6,75.44,59.52,77.64,58.81Z" transform="translate(-0.25 -0.25)"/><path class="cls-1" d="M77.58,58l.06.81c-2.2.72-4.36,1.8-6.61,2.06-2.84.34-4.29,1.56-4.53,4.34a7.91,7.91,0,0,1-.34,1.18c-1.17-.17-2.32-.33-3.47-.48a15.5,15.5,0,0,0-12.24,3.2c-3.15,2.53-6.64,4.2-10.87,4a14.75,14.75,0,0,1-7.46-2.27A31.14,31.14,0,0,1,29.35,69c-3.82-3.08-8.16-3.73-12.86-2.84-.78.14-1.56.21-2.59.34-.21-.8-.47-1.58-.62-2.39a3.25,3.25,0,0,0-3.11-3,39.53,39.53,0,0,1-6.07-1.65,10.13,10.13,0,0,1-2.05-1.38A22.71,22.71,0,0,0,16.83,48a29.56,29.56,0,0,0,2.73-5c1-2.41.21-4.37-2.09-5.66a25.64,25.64,0,0,0-2.71-1.16A12.61,12.61,0,0,1,12.06,35a8.81,8.81,0,0,1-1.57-2.08,10.9,10.9,0,0,1,3-.68c1.42.07,2.81.73,4.23.77,2.27.07,2.87-.67,2.79-3-.11-3.22-.3-6.45-.34-9.68-.12-9.17,7.13-16.53,16-17.69a30.54,30.54,0,0,1,8.46.13A17.94,17.94,0,0,1,59.93,21.1c-.06,3.09-.12,6.2-.39,9.29-.16,1.92.87,2.59,2.38,2.58a23.27,23.27,0,0,0,4-.74A5.29,5.29,0,0,1,68,32a2.62,2.62,0,0,1,1.58,1.26c.13.28-.56,1.18-1.06,1.44-1.4.71-2.89,1.24-4.36,1.82-4.15,1.62-5.1,3.91-3.1,7.86C64.58,51.29,69.74,56.26,77.58,58Z" transform="translate(-0.25 -0.25)"/></g></g></svg>