<svg xmlns="http://www.w3.org/2000/svg" viewBox="0 0 74.55 70"><defs><style>.cls-1{fill:#fff;}</style></defs><title>snap</title><g id="Layer_2" data-name="Layer 2"><g id="Layer_1-2" data-name="Layer 1"><path class="cls-1" d="M74.55,55.38a14.94,14.94,0,0,1-2.67,1.46,35.92,35.92,0,0,1-5.49,1.31,2.75,2.75,0,0,0-2.59,2.4c-.63,2.78-.67,2.85-3.45,2.38A15.51,15.51,0,0,0,47.5,66.06C44.41,68.5,41,70.18,36.85,70a14,14,0,0,1-6.94-2,38,38,0,0,1-3.44-2.3c-3.9-3.07-8.29-3.5-13-2.58-2.56.5-2.12.44-2.6-1.64-.66-2.83-.76-2.85-3.67-3.43a44.56,44.56,0,0,1-5.18-1.41A10.65,10.65,0,0,1,0,55.39L.09,55c.55-.13,1.12-.24,1.66-.4C9.37,52.29,14.17,47,17.14,39.84a3.72,3.72,0,0,0-1.47-4.75,22.43,22.43,0,0,0-3.44-1.7,23.52,23.52,0,0,1-3-1.31c-.56-.36-.83-1.15-1.23-1.75a14,14,0,0,1,2.53-1c.46-.09,1,.44,1.54.53a18.3,18.3,0,0,0,3.93.4c1.65-.11,2-.82,2-2.46a109.17,109.17,0,0,1-.18-11.73c.55-6.94,4.57-11.64,10.81-14.34,7.15-3.09,17.82-2.38,24,4.64a16.1,16.1,0,0,1,4.36,11c0,3.45-.18,6.91-.32,10.36-.07,1.72.35,2.47,2.08,2.49a29.57,29.57,0,0,0,4.29-.71,6.16,6.16,0,0,1,2.52-.07c1.41.43,1.55,1.43.35,2.28a15.09,15.09,0,0,1-2.71,1.33c-1.22.53-2.53.9-3.68,1.54-2.17,1.21-2.94,3.13-2,5.39,3.13,7.22,8,12.63,15.93,14.7.34.09.68.2,1,.3Z"/></g></g></svg>